Coordinates
version=1
nRows=7
nColumns=63
inDegrees=yes

Units are S.I. units (second, meters, Newtons, ...)
If the header above contains a line with 'inDegrees', this indicates whether rotational values are in degrees (yes) or radians (no).

endheader
time	pelvis_tilt	pelvis_list	pelvis_rotation	pelvis_tx	pelvis_ty	pelvis_tz	hip_flexion_r	hip_adduction_r	hip_rotation_r	knee_angle_r	knee_angle_r_beta	ankle_angle_r	subtalar_angle_r	mtp_angle_r	hip_flexion_l	hip_adduction_l	hip_rotation_l	knee_angle_l	knee_angle_l_beta	ankle_angle_l	subtalar_angle_l	mtp_angle_l	L5_S1_Flex_Ext	L5_S1_Lat_Bending	L5_S1_axial_rotation	L4_L5_Flex_Ext	L4_L5_Lat_Bending	L4_L5_axial_rotation	L3_L4_Flex_Ext	L3_L4_Lat_Bending	L3_L4_axial_rotation	L2_L3_Flex_Ext	L2_L3_Lat_Bending	L2_L3_axial_rotation	L1_L2_Flex_Ext	L1_L2_Lat_Bending	L1_L2_axial_rotation	L1_T12_Flex_Ext	L1_T12_Lat_Bending	L1_T12_axial_rotation	Abs_r3	Abs_r2	Abs_r1	Abs_t1	Abs_t2	neck_flexion	neck_bending	neck_rotation	arm_flex_r	arm_add_r	arm_rot_r	elbow_flex_r	pro_sup_r	wrist_flex_r	wrist_dev_r	arm_flex_l	arm_add_l	arm_rot_l	elbow_flex_l	pro_sup_l	wrist_flex_l	wrist_dev_l
      0.00000000	     -4.19654690	     -5.90337082	     83.63812098	      0.20442128	      0.85967319	      0.69095396	      9.89928419	     -5.00136300	      5.23700420	     12.46974234	      0.21763806	     36.40396073	     13.48343542	      0.00000000	     10.99163960	      4.33636954	      0.55130106	     17.77773403	      0.31027999	     31.98480252	    -11.16902111	      0.00000000	      0.52688895	     -0.41882658	      0.82905429	      0.97848546	     -0.55703935	      0.88087019	      0.86562585	     -1.01833495	      0.88087019	      0.60218138	     -1.01833495	      0.72542251	      0.48926908	     -0.85407116	      0.67360661	      0.30106434	     -0.64876237	      0.62179072	      3.76351506	     -4.73785005	      4.61095126	      0.00000000	      0.00000000	     27.85603904	     -3.19304211	    -20.96831014	     39.04634518	      4.49137690	    104.68957176	     27.51421214	     88.69945522	    -16.00730538	     -9.10883238	     30.48995471	      1.28217155	     64.90567609	     24.25556900	     45.18283823	     -7.01674058	      1.58361631
      0.01666667	     -4.02776956	     -5.89562128	     83.77783614	      0.20435673	      0.85945310	      0.69049958	      9.75457039	     -4.81055953	      5.32704690	     12.22093719	      0.21329559	     37.00859258	     13.47270613	      0.00000000	     10.87147815	      4.13373324	      0.39571400	     17.86370034	      0.31178039	     31.48971422	    -11.24993611	      0.00000000	      0.54012083	     -0.40760039	      0.81750265	      1.00305840	     -0.54210852	      0.86859657	      0.88736452	     -0.99103960	      0.86859657	      0.61730410	     -0.99103960	      0.71531482	      0.50155621	     -0.83117872	      0.66422091	      0.30862504	     -0.63137301	      0.61312699	      3.85802910	     -4.61085717	      4.54670451	      0.00000000	      0.00000000	     27.89876276	     -3.14259987	    -20.92477182	     38.65959743	      4.36138858	    104.75187613	     27.47045277	     88.62389556	    -15.81247776	     -8.98818033	     30.04686050	      1.16451575	     65.05782834	     24.19938904	     45.24486437	     -7.00674786	      1.65585700
      0.03333333	     -3.15207728	     -6.05174255	     84.62596589	      0.20242032	      0.85925969	      0.68814488	      8.57388289	     -3.85517491	      7.27448373	     10.04247458	      0.17527425	     36.08223308	     10.33541023	      0.00000000	     10.68950899	      3.69422921	      3.15624692	     17.66672903	      0.30834259	     30.63145381	    -14.45201488	      0.00000000	      0.61467670	     -0.27178655	      0.60049414	      1.14151610	     -0.36147611	      0.63802503	      1.00985235	     -0.66082182	      0.63802503	      0.70251400	     -0.66082182	      0.52543238	      0.57078878	     -0.55422714	      0.48790149	      0.35122627	     -0.42099737	      0.45037061	      4.39057420	     -3.07450384	      3.33976828	      0.00000000	      0.00000000	     27.83364344	     -1.83049146	    -16.55407532	     37.54219368	      3.38391920	    100.38278154	     28.74587553	     88.47591515	    -11.30673912	     -6.34736676	     29.45437234	      1.28290318	     65.86642089	     24.00005396	     47.64300446	     -7.39449307	      1.44405161
      0.05000000	     -2.85887382	     -5.94442542	     85.11937697	      0.20188832	      0.85939727	      0.68689188	      7.70162727	     -3.41410811	     10.00605278	      8.81560273	      0.15386129	     35.34892018	      6.33071455	      0.00000000	     10.35800886	      3.55218042	      4.16600998	     17.44672671	      0.30450282	     30.26039859	    -15.34841936	      0.00000000	      0.61495248	     -0.24822633	      0.49501802	      1.14202825	     -0.33014103	      0.52595664	      1.01030543	     -0.60353751	      0.52595664	      0.70282919	     -0.60353751	      0.43314077	      0.57104487	     -0.50618314	      0.40220214	      0.35138385	     -0.38450259	      0.37126351	      4.39254405	     -2.80798594	      2.75314171	      0.00000000	      0.00000000	     27.77548499	     -2.35411838	    -17.74947204	     37.22397255	      3.16524441	     99.24611280	     28.96520135	     88.45861015	    -10.43912664	     -5.74555086	     28.90471323	      1.23992386	     64.27559386	     24.22543353	     52.06100636	     -7.46349475	      2.22375197
      0.06666667	     -2.62570778	     -5.83544557	     85.45108697	      0.20142262	      0.85949865	      0.68606980	      7.14405874	     -3.20145285	     10.33465214	      8.14767213	      0.14220370	     35.15621155	      5.56726118	      0.00000000	     10.12175662	      3.40075490	      4.67133507	     17.33011247	      0.30246752	     30.23662932	    -15.56917815	      0.00000000	      0.61216031	     -0.22431862	      0.40808287	      1.13684290	     -0.29834377	      0.43358805	      1.00571817	     -0.54540830	      0.43358805	      0.69963801	     -0.54540830	      0.35707251	      0.56845206	     -0.45743054	      0.33156733	      0.34978840	     -0.34746955	      0.30606215	      4.37259984	     -2.53753713	      2.26963452	      0.00000000	      0.00000000	     27.68684498	     -2.95262142	    -18.76117200	     37.35967403	      3.20892740	     99.89340857	     28.81062343	     88.46864762	    -10.91524350	     -5.81439906	     28.84887117	      1.21798754	     64.92991174	     24.20153054	     54.32544981	     -7.78239237	      2.23712267
      0.08333333	     -2.52559398	     -5.76130147	     85.91893675	      0.20087008	      0.85959290	      0.68532372	      6.65098487	     -3.12002040	     10.76211228	      7.57880812	      0.13227516	     34.89814806	      4.43869014	      0.00000000	      9.94442822	      3.41888285	      5.41684156	     17.18183037	      0.29987951	     30.19065818	    -15.90029882	      0.00000000	      0.60914165	     -0.22416560	      0.30433825	      1.13123696	     -0.29814025	      0.32335939	      1.00075882	     -0.54503625	      0.32335939	      0.69618799	     -0.54503625	      0.26629597	      0.56564894	     -0.45711850	      0.24727483	      0.34806354	     -0.34723252	      0.22825369	      4.35103789	     -2.53580613	      1.69263805	      0.00000000	      0.00000000	     27.57981947	     -3.82000876	    -20.82242528	     37.57074961	      3.32315803	    100.68362752	     28.53067607	     88.48779742	    -11.71230186	     -6.39837982	     28.89611331	      1.16742992	     65.44777828	     24.17556752	     57.48452474	     -7.91889603	      2.24895862
      0.10000000	     -2.43358537	     -5.68106671	     86.22561145	      0.20069548	      0.85969217	      0.68435348	      6.13970082	     -2.97228587	     12.12110952	      6.98324811	      0.12188067	     34.34107360	      2.18066662	      0.00000000	      9.72657132	      3.37996311	      5.83173278	     16.98809399	      0.29649817	     30.27504342	    -15.89641206	      0.00000000	      0.60478520	     -0.22277825	      0.20391552	      1.12314660	     -0.29629507	      0.21666024	      0.99360161	     -0.54166304	      0.21666024	      0.69120901	     -0.54166304	      0.17842608	      0.56160354	     -0.45428941	      0.16568136	      0.34557426	     -0.34508351	      0.15293664	      4.31992022	     -2.52011214	      1.13411695	      0.00000000	      0.00000000	     27.46701102	     -4.58424272	    -22.58147431	     37.71848102	      3.52362511	    101.36360908	     28.28920918	     88.53536905	    -12.41086191	     -6.67684999	     27.79993787	      1.12883554	     58.96484265	     25.08766526	     69.74599443	     -7.61774175	      4.09153346
